<svg width="28" height="28" viewBox="0 0 28 28" fill="none" xmlns="http://www.w3.org/2000/svg">
<rect width="28" height="27.8125" rx="5" fill="white"/>
<path fill-rule="evenodd" clip-rule="evenodd" d="M10.5987 5.7995C11.4785 5.759 11.759 5.75 14 5.75C16.241 5.75 16.5215 5.75975 17.4005 5.7995C18.2795 5.83925 18.8795 5.9795 19.4045 6.18275C19.9542 6.3905 20.453 6.71525 20.8655 7.13525C21.2855 7.547 21.6095 8.045 21.8165 8.5955C22.0205 9.1205 22.16 9.7205 22.2005 10.598C22.241 11.4792 22.25 11.7597 22.25 14C22.25 16.241 22.2402 16.5215 22.2005 17.4012C22.1607 18.2787 22.0205 18.8787 21.8165 19.4037C21.6095 19.9543 21.285 20.4531 20.8655 20.8655C20.453 21.2855 19.9542 21.6095 19.4045 21.8165C18.8795 22.0205 18.2795 22.16 17.402 22.2005C16.5215 22.241 16.241 22.25 14 22.25C11.759 22.25 11.4785 22.2402 10.5987 22.2005C9.72125 22.1607 9.12125 22.0205 8.59625 21.8165C8.04569 21.6095 7.54687 21.2849 7.1345 20.8655C6.71478 20.4535 6.38999 19.9549 6.18275 19.4045C5.9795 18.8795 5.84 18.2795 5.7995 17.402C5.759 16.5207 5.75 16.2402 5.75 14C5.75 11.759 5.75975 11.4785 5.7995 10.5995C5.83925 9.7205 5.9795 9.1205 6.18275 8.5955C6.39029 8.04506 6.71534 7.54648 7.13525 7.1345C7.54703 6.71488 8.04535 6.39008 8.5955 6.18275C9.1205 5.9795 9.7205 5.84 10.598 5.7995H10.5987ZM17.3337 7.2845C16.4637 7.24475 16.2027 7.2365 14 7.2365C11.7972 7.2365 11.5362 7.24475 10.6662 7.2845C9.8615 7.32125 9.425 7.4555 9.134 7.56875C8.74925 7.71875 8.474 7.8965 8.18525 8.18525C7.91153 8.45154 7.70089 8.77571 7.56875 9.134C7.4555 9.425 7.32125 9.8615 7.2845 10.6662C7.24475 11.5362 7.2365 11.7972 7.2365 14C7.2365 16.2028 7.24475 16.4637 7.2845 17.3337C7.32125 18.1385 7.4555 18.575 7.56875 18.866C7.70075 19.2238 7.9115 19.5485 8.18525 19.8148C8.4515 20.0885 8.77625 20.2993 9.134 20.4313C9.425 20.5445 9.8615 20.6788 10.6662 20.7155C11.5362 20.7552 11.7965 20.7635 14 20.7635C16.2035 20.7635 16.4637 20.7552 17.3337 20.7155C18.1385 20.6788 18.575 20.5445 18.866 20.4313C19.2507 20.2813 19.526 20.1035 19.8147 19.8148C20.0885 19.5485 20.2992 19.2238 20.4312 18.866C20.5445 18.575 20.6787 18.1385 20.7155 17.3337C20.7552 16.4637 20.7635 16.2028 20.7635 14C20.7635 11.7972 20.7552 11.5362 20.7155 10.6662C20.6787 9.8615 20.5445 9.425 20.4312 9.134C20.2812 8.74925 20.1035 8.474 19.8147 8.18525C19.5484 7.91155 19.2243 7.70091 18.866 7.56875C18.575 7.4555 18.1385 7.32125 17.3337 7.2845ZM12.9462 16.5433C13.5347 16.7882 14.19 16.8213 14.8002 16.6368C15.4104 16.4523 15.9375 16.0617 16.2917 15.5317C16.6459 15.0017 16.805 14.3652 16.742 13.7308C16.679 13.0965 16.3978 12.5037 15.9462 12.0538C15.6584 11.7661 15.3104 11.5459 14.9272 11.4089C14.5441 11.2719 14.1353 11.2215 13.7304 11.2615C13.3254 11.3014 12.9344 11.4306 12.5854 11.6398C12.2363 11.8491 11.9381 12.1331 11.712 12.4714C11.4859 12.8097 11.3376 13.194 11.2779 13.5965C11.2181 13.999 11.2484 14.4097 11.3664 14.7991C11.4844 15.1886 11.6874 15.547 11.9605 15.8485C12.2337 16.1501 12.5704 16.3874 12.9462 16.5433ZM11.0015 11.0015C11.3953 10.6077 11.8627 10.2954 12.3772 10.0823C12.8917 9.86916 13.4431 9.75948 14 9.75948C14.5569 9.75948 15.1083 9.86916 15.6228 10.0823C16.1373 10.2954 16.6047 10.6077 16.9985 11.0015C17.3923 11.3953 17.7046 11.8627 17.9177 12.3772C18.1308 12.8917 18.2405 13.4431 18.2405 14C18.2405 14.5569 18.1308 15.1083 17.9177 15.6228C17.7046 16.1373 17.3923 16.6047 16.9985 16.9985C16.2032 17.7938 15.1247 18.2405 14 18.2405C12.8753 18.2405 11.7968 17.7938 11.0015 16.9985C10.2062 16.2032 9.75948 15.1247 9.75948 14C9.75948 12.8753 10.2062 11.7968 11.0015 11.0015ZM19.181 10.391C19.2786 10.299 19.3567 10.1883 19.4107 10.0655C19.4648 9.9427 19.4936 9.81033 19.4956 9.6762C19.4975 9.54207 19.4725 9.40891 19.4221 9.28461C19.3717 9.1603 19.2968 9.04738 19.202 8.95253C19.1071 8.85768 18.9942 8.78282 18.8699 8.73239C18.7456 8.68196 18.6124 8.65698 18.4783 8.65894C18.3442 8.66089 18.2118 8.68974 18.089 8.74377C17.9662 8.7978 17.8555 8.87592 17.7635 8.9735C17.5845 9.16327 17.4865 9.41534 17.4903 9.6762C17.4941 9.93705 17.5994 10.1862 17.7839 10.3706C17.9683 10.5551 18.2174 10.6604 18.4783 10.6642C18.7392 10.668 18.9912 10.57 19.181 10.391Z" fill="#113466"/>
</svg>
