<svg width="100" height="89" viewBox="0 0 100 89" fill="none" xmlns="http://www.w3.org/2000/svg">
<rect x="41" y="53.2" width="18" height="34" stroke="#113466" stroke-width="2"/>
<rect x="30.9092" y="83.7" width="38.1818" height="4.5" rx="2.25" fill="#113466"/>
<rect x="1" y="1" width="98" height="70" rx="6" fill="white" stroke="#113466" stroke-width="2"/>
<rect x="42.7273" y="65.7" width="13.6364" height="1.8" rx="0.9" fill="#4D98EB"/>
<path d="M23 59C23 55.134 26.134 52 30 52H71C74.866 52 78 55.134 78 59V62H23V59Z" fill="#006CE2" fill-opacity="0.7"/>
<path d="M5.5 13C5.5 9.41015 8.41015 6.5 12 6.5H88C91.5898 6.5 94.5 9.41015 94.5 13V55C94.5 58.5899 91.5898 61.5 88 61.5H12C8.41015 61.5 5.5 58.5899 5.5 55V13Z" stroke="#113466"/>
</svg>
