<svg width="113" height="82" viewBox="0 0 113 82" fill="none" xmlns="http://www.w3.org/2000/svg">
<path d="M66.3181 30.3491L8.99219 65.1942" stroke="black"/>
<rect x="1" y="1" width="110.404" height="78.9308" rx="6" fill="white" stroke="#113466" stroke-width="2"/>
<path d="M8.99219 30.3491L66.3181 65.1942" stroke="#113466" stroke-width="2"/>
<path d="M66.4282 30.7537L8.99214 65.417" stroke="#113466" stroke-width="2"/>
<rect x="7.74414" y="29.101" width="59.8221" height="37.3413" rx="1" stroke="#113466" stroke-width="2"/>
<path d="M0 7C0 3.13401 3.13401 0 7 0H33.7211V5.36442C33.7211 9.23041 30.5871 12.3644 26.7211 12.3644H0V7Z" fill="#006CE2" fill-opacity="0.7"/>
<path d="M1 7C1 3.68629 3.68629 1 7 1H55.2019V13.2327C55.2019 16.5464 52.5156 19.2327 49.2019 19.2327H1V7Z" stroke="#113466" stroke-width="2"/>
<rect x="97.1479" y="60.3356" width="13.4692" height="50.8433" rx="4.5" transform="rotate(180 97.1479 60.3356)" fill="#006CE2" fill-opacity="0.7" stroke="#113466"/>
<rect x="97.1479" y="61.3002" width="13.4692" height="45.3014" transform="rotate(180 97.1479 61.3002)" fill="white" stroke="#113466"/>
<rect x="94.9373" y="48.1324" width="1.64151" height="20.6696" rx="0.820755" transform="rotate(180 94.9373 48.1324)" fill="#006CE2" fill-opacity="0.7"/>
<rect x="90.9336" y="43.951" width="1.64151" height="10.9425" rx="0.820755" transform="rotate(180 90.9336 43.951)" fill="#006CE2" fill-opacity="0.7"/>
<rect x="87.4346" y="48.8146" width="1.64151" height="20.6696" rx="0.820755" transform="rotate(180 87.4346 48.8146)" fill="#006CE2" fill-opacity="0.7"/>
<path d="M96.7016 62.3002L90.178 71.8681L84.0894 62.3002L96.7016 62.3002Z" fill="white" fill-opacity="0.7" stroke="#113466"/>
<path d="M90.3437 70.7489L89.0242 69.0525L91.7574 69.0525L90.3437 70.7489Z" fill="#113466" stroke="#113466"/>
</svg>
