<svg width="107" height="89" viewBox="0 0 107 89" fill="none" xmlns="http://www.w3.org/2000/svg">
<rect x="1" y="21" width="93" height="67" rx="3" stroke="#006CE2" stroke-opacity="0.7" stroke-width="2"/>
<rect x="8" y="1" width="98" height="78" rx="5" fill="white" stroke="#113466" stroke-width="2"/>
<rect x="15" y="43" width="35" height="26" rx="1" fill="#006CE2" fill-opacity="0.7"/>
<rect x="14.5" y="26.5" width="54" height="43" rx="0.5" stroke="#113466"/>
<circle cx="16.5" cy="8.5" r="2.5" fill="#006CE2" fill-opacity="0.7"/>
<circle cx="26.5" cy="8.5" r="2.5" fill="#006CE2" fill-opacity="0.7"/>
<circle cx="36.5" cy="8.5" r="2.5" fill="#006CE2" fill-opacity="0.7"/>
<rect x="9" y="15" width="96" height="2" fill="#113466"/>
<rect x="76" y="26" width="16" height="2" fill="#113466"/>
<rect x="94" y="26" width="7" height="2" fill="#113466"/>
<rect x="76" y="33" width="25" height="2" fill="#113466"/>
<rect x="76" y="40" width="25" height="2" fill="#113466"/>
<rect x="76" y="49" width="12" height="2" fill="#113466"/>
<rect x="92" y="49" width="9" height="2" fill="#113466"/>
<rect x="76" y="58" width="25" height="2" fill="#113466"/>
<rect x="76" y="67" width="25" height="2" fill="#113466"/>
</svg>
